<?xml version="1.0" encoding="utf-8"?><svg xmlns="http://www.w3.org/2000/svg" xmlns:xlink="http://www.w3.org/1999/xlink"><symbol viewBox="0 0 16 16" class="asi-glyph asi-glyph-abacus" id="si-glyph-abacus"><title>642</title><g transform="translate(0 1)" fill="#434343" class="asi-glyph-fill" fill-rule="evenodd"><path d="M14.194 13.958H1.765c-1.449 0-1.729-1.15-1.729-2.564V2.607C.036 1.193.315.043 1.765.043h12.429c1.448 0 1.728 1.15 1.728 2.564v8.787c0 1.414-.279 2.564-1.728 2.564zM1.923 1A.937.937 0 0 0 1 1.948v10.104c0 .522.414.948.923.948h12.154a.937.937 0 0 0 .923-.948V1.948A.937.937 0 0 0 14.077 1H1.923z" class="asi-glyph-fill"/><path class="asi-glyph-fill" d="M3 0h.948v13.068H3zM8 0h.948v13.068H8zM12 0h.948v13.068H12z"/><ellipse cx="3.438" cy="4.976" rx="1.438" ry=".976" class="asi-glyph-fill"/><ellipse cx="3.438" cy="7.976" rx="1.438" ry=".976" class="asi-glyph-fill"/><ellipse cx="3.438" cy="10.976" rx="1.438" ry=".976" class="asi-glyph-fill"/><ellipse cx="8.477" cy="2.976" rx="1.477" ry=".976" class="asi-glyph-fill"/><ellipse cx="8.477" cy="5.976" rx="1.477" ry=".976" class="asi-glyph-fill"/><ellipse cx="8.477" cy="10.976" rx="1.477" ry=".976" class="asi-glyph-fill"/><ellipse cx="12.435" cy="7.977" rx="1.435" ry=".977" class="asi-glyph-fill"/><ellipse cx="12.435" cy="10.977" rx="1.435" ry=".977" class="asi-glyph-fill"/></g></symbol><symbol viewBox="0 0 17 16" class="bsi-glyph bsi-glyph-adjustment-horizon" id="si-glyph-adjustment-horizon"><title>1197</title><g fill="#434343" fill-rule="evenodd"><path d="M8 1v1.956h7.928V1H8zM0 1h1.975v1.975H0zM0 7v1.988h5.011V7H0zM11 7v1.979h4.987V7H11zM0 13h8.019v1.962H0zM14 13h2v1.961h-2zM10.968 16.04c1.087 0 2.008-.822 2.008-1.88 0-1.06-.921-2.16-2.008-2.16s-1.924.961-1.924 2.02c0 1.059.837 2.02 1.924 2.02zM7.906 9.993c1.053 0 2.103-1.017 2.103-2.076C10.009 6.858 8.959 6 7.906 6A1.912 1.912 0 0 0 6 7.917c0 1.059.853 2.076 1.906 2.076zM5.056 3.981c1.059 0 1.966-1.005 1.966-2.064C7.022.858 5.976 0 4.917 0A1.917 1.917 0 0 0 3 1.917c0 1.059.997 2.064 2.056 2.064z" class="bsi-glyph-fill"/></g></symbol><symbol viewBox="0 0 17 16" class="csi-glyph csi-glyph-adjustment-vertical" id="si-glyph-adjustment-vertical"><title>1196</title><g transform="translate(1)" fill="#434343" fill-rule="evenodd"><path d="M1 0v5.007h1.95V0H1zM1 11v4.958h2.01V11H1zM7 14v1.976h1.966V14H7zM7 0v8h2V0H7zM13 9v6.942h1.977V9H13zM13 0v2.933h2.009V0H13zM13.917 8.049c1.059 0 2.094-.994 2.094-2.081S14.976 4 13.917 4 12 4.881 12 5.968s.858 2.081 1.917 2.081zM7.917 13.01c1.059 0 2.04-1.051 2.04-2.104C9.958 9.853 8.977 9 7.918 9A1.912 1.912 0 0 0 6 10.906c0 1.053.858 2.103 1.917 2.103zM1.917 9.989c1.059 0 2.057-1.013 2.057-2.072C3.974 6.858 2.976 6 1.917 6A1.917 1.917 0 0 0 0 7.917c0 1.059.858 2.072 1.917 2.072z" class="csi-glyph-fill"/></g></symbol><symbol viewBox="0 0 17 16" class="dsi-glyph dsi-glyph-air-balloon" id="si-glyph-air-balloon"><title>670</title><g transform="translate(4)" fill="#434343" fill-rule="evenodd"><path d="M6.959 15.312a.678.678 0 0 1-.678.678h-2.6a.678.678 0 0 1-.676-.678v-2.234h3.953v2.234h.001zM9.985 4.751c0-1.769-.89-3.707-3.009-4.446 1.238 1.027 3.428 3.403-1.43 10.664L5.974.155s-.463-.123-.99-.123c-.512 0-.941.113-.941.113l.5 10.813C-.332 3.582 1.84 1.295 3.092.294.954 1.027.016 2.977.016 4.751.016 7.466 4.561 12 3.786 12h2.506c-.71 0 3.693-4.48 3.693-7.249z" class="dsi-glyph-fill"/></g></symbol><symbol viewBox="0 0 16 16" class="esi-glyph esi-glyph-airplane" id="si-glyph-airplane"><title>86</title><g transform="translate(1)" fill="#434343" fill-rule="evenodd"><path d="M8.264 10.32l3.52 5.48a.798.798 0 0 0 .51.199.744.744 0 0 0 .531-.207c.389-.581-.561-4.316-1.861-8.172l-2.7 2.7z" class="esi-glyph-fill"/><path d="M14.613.42c-.584-.586-1.328-.525-1.828-.027l-4.08 4.064C6.268 3.681 1.859 2.182.195 2.182c-.232 0-.334.026-.369.037a.758.758 0 0 0-.014 1.012l6.107 4-3.032 3.02S.548 9.769.206 9.724c-.477-.062-1.027.356-.002.879 1.197.609 2.599 1.317 2.599 1.317s.863 1.679 1.39 2.604c.671 1.119 1.065.576.985 0l-.348-2.515 2.884-2.992 2.829-2.819 4.026-4.011c.501-.498.626-1.183.044-1.767z" class="esi-glyph-fill"/></g></symbol><symbol viewBox="0 0 16 16" class="fsi-glyph fsi-glyph-airplane-2" id="si-glyph-airplane-2"><title>644</title><g transform="translate(0 1)" fill="#434343" fill-rule="evenodd"><ellipse cx="7.98" cy="7.904" rx="1.98" ry="1.904" class="fsi-glyph-fill"/><path d="M3.754 2.492c.797.888 1.325 1.735 1.182 1.895-.143.158-.904-.431-1.701-1.317-.795-.887-1.325-1.735-1.182-1.895.142-.159.904.43 1.701 1.317zM12.777 3.069c-.797.887-1.559 1.477-1.701 1.317-.143-.16.386-1.007 1.183-1.895.797-.887 1.558-1.477 1.7-1.317.142.16-.387 1.009-1.182 1.895zM5.997 14.441c0 .267-.22.481-.49.481a.485.485 0 0 1-.491-.481v-.924c0-.266.219-.479.491-.479.271 0 .49.214.49.479v.924zM10.977 14.496a.477.477 0 0 1-.465.489.477.477 0 0 1-.465-.489v-.938c0-.271.209-.488.465-.488.257 0 .465.218.465.488v.938z" class="fsi-glyph-fill"/><path d="M15.957.496c0 .818-.57 1.482-1.275 1.482H1.304C.6 1.978.03 1.314.03.496c0 0-.195-.419 1.274-.419h13.378c1.373 0 1.275.419 1.275.419zM8.035 5.072c1.611 0 2.326.843 2.326.843h2.59c-.6-1.661-2.597-2.882-4.973-2.882-2.377 0-4.373 1.221-4.973 2.882h2.699c.001 0 .714-.843 2.331-.843zM8.045 10.965c-1.836 0-2.338-.934-2.338-.934H3c.607 1.71 2.609 2.968 4.989 2.968s4.384-1.258 4.99-2.968h-2.597c.001 0-.503.934-2.337.934zM6 8.935s-4.955.331-4.955-.809C1.045 6.981 6 7.049 6 7.049v1.886zM10.121 7.034s4.816-.203 4.816.947c0 1.151-4.816.947-4.816.947V7.034z" class="fsi-glyph-fill"/></g></symbol></svg>